<svg width="46" height="46" viewBox="0 0 46 46" fill="none" xmlns="http://www.w3.org/2000/svg">
<path d="M23 0.5C10.58 0.5 0.5 10.58 0.5 23C0.5 35.42 10.58 45.5 23 45.5C35.42 45.5 45.5 35.42 45.5 23C45.5 10.58 35.42 0.5 23 0.5ZM32 25.25H25.25V32C25.25 33.2375 24.2375 34.25 23 34.25C21.7625 34.25 20.75 33.2375 20.75 32V25.25H14C12.7625 25.25 11.75 24.2375 11.75 23C11.75 21.7625 12.7625 20.75 14 20.75H20.75V14C20.75 12.7625 21.7625 11.75 23 11.75C24.2375 11.75 25.25 12.7625 25.25 14V20.75H32C33.2375 20.75 34.25 21.7625 34.25 23C34.25 24.2375 33.2375 25.25 32 25.25Z" fill="#0096C8"/>
</svg>
